<mxfile host="Electron" agent="Mozilla/5.0 (Windows NT 10.0; Win64; x64) AppleWebKit/537.36 (KHTML, like Gecko) draw.io/28.0.4 Chrome/138.0.7204.97 Electron/37.2.1 Safari/537.36" version="28.0.4">
  <diagram name="Страница — 1" id="5nfPxr6PqhwUY4MbXTxY">
    <mxGraphModel dx="2431" dy="1413" grid="1" gridSize="10" guides="1" tooltips="1" connect="1" arrows="1" fold="1" page="1" pageScale="1" pageWidth="827" pageHeight="1169" math="0" shadow="0">
      <root>
        <mxCell id="0" />
        <mxCell id="1" parent="0" />
        <mxCell id="LWKcgiRB05Fe1JAIv9ON-14" value="" style="shape=table;startSize=0;container=1;collapsible=0;childLayout=tableLayout;fontSize=12;gradientColor=none;" vertex="1" parent="1">
          <mxGeometry x="40" y="640" width="1760" height="640" as="geometry" />
        </mxCell>
        <mxCell id="LWKcgiRB05Fe1JAIv9ON-15" value="" style="shape=tableRow;horizontal=0;startSize=0;swimlaneHead=0;swimlaneBody=0;strokeColor=inherit;top=0;left=0;bottom=0;right=0;collapsible=0;dropTarget=0;fillColor=none;points=[[0,0.5],[1,0.5]];portConstraint=eastwest;fontSize=16;" vertex="1" parent="LWKcgiRB05Fe1JAIv9ON-14">
          <mxGeometry width="1760" height="80" as="geometry" />
        </mxCell>
        <mxCell id="LWKcgiRB05Fe1JAIv9ON-16" value="" style="shape=partialRectangle;html=1;whiteSpace=wrap;connectable=0;overflow=hidden;top=0;left=0;bottom=0;right=0;pointerEvents=1;fontSize=16;" vertex="1" parent="LWKcgiRB05Fe1JAIv9ON-15">
          <mxGeometry width="320" height="80" as="geometry">
            <mxRectangle width="320" height="80" as="alternateBounds" />
          </mxGeometry>
        </mxCell>
        <mxCell id="LWKcgiRB05Fe1JAIv9ON-17" value="&lt;strong style=&quot;font-size: 16px; white-space-collapse: preserve-breaks; box-sizing: inherit; color: rgba(0, 0, 0, 0.85); font-family: &amp;quot;YS Text&amp;quot;, sans-serif; text-align: left; background-color: rgb(255, 255, 255);&quot;&gt;&lt;font style=&quot;font-size: 14px;&quot;&gt;Продажи в сети отделений&lt;/font&gt;&lt;/strong&gt;" style="shape=partialRectangle;html=1;whiteSpace=wrap;connectable=0;strokeColor=#000000;overflow=hidden;fillColor=#f5f5f5;top=0;left=0;bottom=0;right=0;pointerEvents=1;fontSize=14;fontColor=#333333;" vertex="1" parent="LWKcgiRB05Fe1JAIv9ON-15">
          <mxGeometry x="320" width="240" height="80" as="geometry">
            <mxRectangle width="240" height="80" as="alternateBounds" />
          </mxGeometry>
        </mxCell>
        <mxCell id="LWKcgiRB05Fe1JAIv9ON-84" value="&lt;strong style=&quot;font-size: 16px; white-space-collapse: preserve-breaks; box-sizing: inherit; color: rgba(0, 0, 0, 0.85); font-family: &amp;quot;YS Text&amp;quot;, sans-serif; text-align: left; background-color: rgb(255, 255, 255);&quot;&gt;&lt;font style=&quot;font-size: 14px;&quot;&gt;Продажи через кол-центр&lt;/font&gt;&lt;/strong&gt;" style="shape=partialRectangle;html=1;whiteSpace=wrap;connectable=0;strokeColor=#000000;overflow=hidden;fillColor=#f5f5f5;top=0;left=0;bottom=0;right=0;pointerEvents=1;fontSize=14;fontColor=#333333;" vertex="1" parent="LWKcgiRB05Fe1JAIv9ON-15">
          <mxGeometry x="560" width="240" height="80" as="geometry">
            <mxRectangle width="240" height="80" as="alternateBounds" />
          </mxGeometry>
        </mxCell>
        <mxCell id="LWKcgiRB05Fe1JAIv9ON-76" value="&lt;strong style=&quot;font-size: 16px; white-space-collapse: preserve-breaks; box-sizing: inherit; color: rgba(0, 0, 0, 0.85); font-family: &amp;quot;YS Text&amp;quot;, sans-serif; text-align: left; background-color: rgb(255, 255, 255);&quot;&gt;&lt;font style=&quot;font-size: 14px;&quot;&gt;Digital-оповещения клиентов&lt;/font&gt;&lt;/strong&gt;" style="shape=partialRectangle;html=1;whiteSpace=wrap;connectable=0;strokeColor=#000000;overflow=hidden;fillColor=#f5f5f5;top=0;left=0;bottom=0;right=0;pointerEvents=1;fontSize=14;fontColor=#333333;" vertex="1" parent="LWKcgiRB05Fe1JAIv9ON-15">
          <mxGeometry x="800" width="240" height="80" as="geometry">
            <mxRectangle width="240" height="80" as="alternateBounds" />
          </mxGeometry>
        </mxCell>
        <mxCell id="LWKcgiRB05Fe1JAIv9ON-68" value="&lt;strong style=&quot;font-size: 16px; white-space-collapse: preserve-breaks; box-sizing: inherit; color: rgba(0, 0, 0, 0.85); font-family: &amp;quot;YS Text&amp;quot;, sans-serif; text-align: left; background-color: rgb(255, 255, 255);&quot;&gt;&lt;font style=&quot;font-size: 14px;&quot;&gt;Обслуживание депозитных процессов&lt;/font&gt;&lt;/strong&gt;" style="shape=partialRectangle;html=1;whiteSpace=wrap;connectable=0;strokeColor=#666666;overflow=hidden;fillColor=#f5f5f5;top=0;left=0;bottom=0;right=0;pointerEvents=1;fontSize=14;fontColor=#333333;" vertex="1" parent="LWKcgiRB05Fe1JAIv9ON-15">
          <mxGeometry x="1040" width="240" height="80" as="geometry">
            <mxRectangle width="240" height="80" as="alternateBounds" />
          </mxGeometry>
        </mxCell>
        <mxCell id="LWKcgiRB05Fe1JAIv9ON-60" value="&lt;strong style=&quot;font-size: 16px; white-space-collapse: preserve-breaks; box-sizing: inherit; color: rgba(0, 0, 0, 0.85); font-family: &amp;quot;YS Text&amp;quot;, sans-serif; text-align: left; background-color: rgb(255, 255, 255);&quot;&gt;&lt;font style=&quot;font-size: 14px;&quot;&gt;Обслуживание кредитных процессов&lt;/font&gt;&lt;/strong&gt;" style="shape=partialRectangle;html=1;whiteSpace=wrap;connectable=0;strokeColor=#FFFFFF;overflow=hidden;fillColor=#f5f5f5;top=0;left=0;bottom=0;right=0;pointerEvents=1;fontSize=14;fontColor=#333333;" vertex="1" parent="LWKcgiRB05Fe1JAIv9ON-15">
          <mxGeometry x="1280" width="240" height="80" as="geometry">
            <mxRectangle width="240" height="80" as="alternateBounds" />
          </mxGeometry>
        </mxCell>
        <mxCell id="LWKcgiRB05Fe1JAIv9ON-52" value="&lt;strong style=&quot;font-size: 16px; white-space-collapse: preserve-breaks; box-sizing: inherit; color: rgba(0, 0, 0, 0.85); font-family: &amp;quot;YS Text&amp;quot;, sans-serif; text-align: left; background-color: rgb(255, 255, 255);&quot;&gt;&lt;font style=&quot;font-size: 14px;&quot;&gt;Управление договорами&lt;/font&gt;&lt;/strong&gt;" style="shape=partialRectangle;html=1;whiteSpace=wrap;connectable=0;strokeColor=#666666;overflow=hidden;fillColor=#f5f5f5;top=0;left=0;bottom=0;right=0;pointerEvents=1;fontSize=14;fontColor=#333333;" vertex="1" parent="LWKcgiRB05Fe1JAIv9ON-15">
          <mxGeometry x="1520" width="240" height="80" as="geometry">
            <mxRectangle width="240" height="80" as="alternateBounds" />
          </mxGeometry>
        </mxCell>
        <mxCell id="LWKcgiRB05Fe1JAIv9ON-19" value="" style="shape=tableRow;horizontal=0;startSize=0;swimlaneHead=0;swimlaneBody=0;strokeColor=inherit;top=0;left=0;bottom=0;right=0;collapsible=0;dropTarget=0;fillColor=none;points=[[0,0.5],[1,0.5]];portConstraint=eastwest;fontSize=16;" vertex="1" parent="LWKcgiRB05Fe1JAIv9ON-14">
          <mxGeometry y="80" width="1760" height="80" as="geometry" />
        </mxCell>
        <mxCell id="LWKcgiRB05Fe1JAIv9ON-20" value="&lt;strong style=&quot;box-sizing: inherit; color: rgba(0, 0, 0, 0.85); font-family: &amp;quot;YS Text&amp;quot;, sans-serif; text-align: left; white-space-collapse: preserve-breaks; background-color: rgb(255, 255, 255);&quot;&gt;&lt;font style=&quot;font-size: 14px;&quot;&gt;Управление обслуживанием в сети отделений (Фронт-офис)&lt;/font&gt;&lt;/strong&gt;" style="shape=partialRectangle;html=1;whiteSpace=wrap;connectable=0;strokeColor=#666666;overflow=hidden;fillColor=#f5f5f5;top=0;left=0;bottom=0;right=0;pointerEvents=1;fontSize=16;fontColor=#333333;strokeWidth=1;" vertex="1" parent="LWKcgiRB05Fe1JAIv9ON-19">
          <mxGeometry width="320" height="80" as="geometry">
            <mxRectangle width="320" height="80" as="alternateBounds" />
          </mxGeometry>
        </mxCell>
        <mxCell id="LWKcgiRB05Fe1JAIv9ON-21" value="АБС (Desktop Delphi/Oracle) - создание заявок, консультации" style="shape=partialRectangle;html=1;whiteSpace=wrap;connectable=0;strokeColor=inherit;overflow=hidden;fillColor=none;top=0;left=0;bottom=0;right=0;pointerEvents=1;fontSize=14;" vertex="1" parent="LWKcgiRB05Fe1JAIv9ON-19">
          <mxGeometry x="320" width="240" height="80" as="geometry">
            <mxRectangle width="240" height="80" as="alternateBounds" />
          </mxGeometry>
        </mxCell>
        <mxCell id="LWKcgiRB05Fe1JAIv9ON-85" value="-" style="shape=partialRectangle;html=1;whiteSpace=wrap;connectable=0;strokeColor=inherit;overflow=hidden;fillColor=none;top=0;left=0;bottom=0;right=0;pointerEvents=1;fontSize=14;" vertex="1" parent="LWKcgiRB05Fe1JAIv9ON-19">
          <mxGeometry x="560" width="240" height="80" as="geometry">
            <mxRectangle width="240" height="80" as="alternateBounds" />
          </mxGeometry>
        </mxCell>
        <mxCell id="LWKcgiRB05Fe1JAIv9ON-77" value="-" style="shape=partialRectangle;html=1;whiteSpace=wrap;connectable=0;strokeColor=inherit;overflow=hidden;fillColor=none;top=0;left=0;bottom=0;right=0;pointerEvents=1;fontSize=14;" vertex="1" parent="LWKcgiRB05Fe1JAIv9ON-19">
          <mxGeometry x="800" width="240" height="80" as="geometry">
            <mxRectangle width="240" height="80" as="alternateBounds" />
          </mxGeometry>
        </mxCell>
        <mxCell id="LWKcgiRB05Fe1JAIv9ON-69" value="Email переписка с бэк-офисом, ожидание клиентов" style="shape=partialRectangle;html=1;whiteSpace=wrap;connectable=0;strokeColor=inherit;overflow=hidden;fillColor=none;top=0;left=0;bottom=0;right=0;pointerEvents=1;fontSize=14;" vertex="1" parent="LWKcgiRB05Fe1JAIv9ON-19">
          <mxGeometry x="1040" width="240" height="80" as="geometry">
            <mxRectangle width="240" height="80" as="alternateBounds" />
          </mxGeometry>
        </mxCell>
        <mxCell id="LWKcgiRB05Fe1JAIv9ON-61" value="Оформление заявок в АБС" style="shape=partialRectangle;html=1;whiteSpace=wrap;connectable=0;strokeColor=inherit;overflow=hidden;fillColor=none;top=0;left=0;bottom=0;right=0;pointerEvents=1;fontSize=14;" vertex="1" parent="LWKcgiRB05Fe1JAIv9ON-19">
          <mxGeometry x="1280" width="240" height="80" as="geometry">
            <mxRectangle width="240" height="80" as="alternateBounds" />
          </mxGeometry>
        </mxCell>
        <mxCell id="LWKcgiRB05Fe1JAIv9ON-53" value="АБС - создание и печать документов" style="shape=partialRectangle;html=1;whiteSpace=wrap;connectable=0;strokeColor=inherit;overflow=hidden;fillColor=none;top=0;left=0;bottom=0;right=0;pointerEvents=1;fontSize=14;" vertex="1" parent="LWKcgiRB05Fe1JAIv9ON-19">
          <mxGeometry x="1520" width="240" height="80" as="geometry">
            <mxRectangle width="240" height="80" as="alternateBounds" />
          </mxGeometry>
        </mxCell>
        <mxCell id="LWKcgiRB05Fe1JAIv9ON-23" value="" style="shape=tableRow;horizontal=0;startSize=0;swimlaneHead=0;swimlaneBody=0;strokeColor=inherit;top=0;left=0;bottom=0;right=0;collapsible=0;dropTarget=0;fillColor=none;points=[[0,0.5],[1,0.5]];portConstraint=eastwest;fontSize=16;" vertex="1" parent="LWKcgiRB05Fe1JAIv9ON-14">
          <mxGeometry y="160" width="1760" height="80" as="geometry" />
        </mxCell>
        <mxCell id="LWKcgiRB05Fe1JAIv9ON-24" value="&lt;strong style=&quot;box-sizing: inherit; color: rgba(0, 0, 0, 0.85); font-family: &amp;quot;YS Text&amp;quot;, sans-serif; text-align: left; white-space-collapse: preserve-breaks; background-color: rgb(255, 255, 255);&quot;&gt;&lt;font style=&quot;font-size: 14px;&quot;&gt;Управление обслуживанием депозитных продуктов (Бэк-офис депозитов)&lt;/font&gt;&lt;/strong&gt;" style="shape=partialRectangle;html=1;whiteSpace=wrap;connectable=0;strokeColor=#666666;overflow=hidden;fillColor=#f5f5f5;top=0;left=0;bottom=0;right=0;pointerEvents=1;fontSize=16;fontColor=#333333;" vertex="1" parent="LWKcgiRB05Fe1JAIv9ON-23">
          <mxGeometry width="320" height="80" as="geometry">
            <mxRectangle width="320" height="80" as="alternateBounds" />
          </mxGeometry>
        </mxCell>
        <mxCell id="LWKcgiRB05Fe1JAIv9ON-25" value="-" style="shape=partialRectangle;html=1;whiteSpace=wrap;connectable=0;strokeColor=inherit;overflow=hidden;fillColor=none;top=0;left=0;bottom=0;right=0;pointerEvents=1;fontSize=14;" vertex="1" parent="LWKcgiRB05Fe1JAIv9ON-23">
          <mxGeometry x="320" width="240" height="80" as="geometry">
            <mxRectangle width="240" height="80" as="alternateBounds" />
          </mxGeometry>
        </mxCell>
        <mxCell id="LWKcgiRB05Fe1JAIv9ON-86" value="Обработка обращений через АБС" style="shape=partialRectangle;html=1;whiteSpace=wrap;connectable=0;strokeColor=inherit;overflow=hidden;fillColor=none;top=0;left=0;bottom=0;right=0;pointerEvents=1;fontSize=14;" vertex="1" parent="LWKcgiRB05Fe1JAIv9ON-23">
          <mxGeometry x="560" width="240" height="80" as="geometry">
            <mxRectangle width="240" height="80" as="alternateBounds" />
          </mxGeometry>
        </mxCell>
        <mxCell id="LWKcgiRB05Fe1JAIv9ON-78" value="СМС через АБС → СМС-шлюз" style="shape=partialRectangle;html=1;whiteSpace=wrap;connectable=0;strokeColor=inherit;overflow=hidden;fillColor=none;top=0;left=0;bottom=0;right=0;pointerEvents=1;fontSize=14;" vertex="1" parent="LWKcgiRB05Fe1JAIv9ON-23">
          <mxGeometry x="800" width="240" height="80" as="geometry">
            <mxRectangle width="240" height="80" as="alternateBounds" />
          </mxGeometry>
        </mxCell>
        <mxCell id="LWKcgiRB05Fe1JAIv9ON-70" value="АБС + Excel расчеты ставок, Email координация" style="shape=partialRectangle;html=1;whiteSpace=wrap;connectable=0;strokeColor=inherit;overflow=hidden;fillColor=none;top=0;left=0;bottom=0;right=0;pointerEvents=1;fontSize=14;" vertex="1" parent="LWKcgiRB05Fe1JAIv9ON-23">
          <mxGeometry x="1040" width="240" height="80" as="geometry">
            <mxRectangle width="240" height="80" as="alternateBounds" />
          </mxGeometry>
        </mxCell>
        <mxCell id="LWKcgiRB05Fe1JAIv9ON-62" value="-" style="shape=partialRectangle;html=1;whiteSpace=wrap;connectable=0;strokeColor=inherit;overflow=hidden;fillColor=none;top=0;left=0;bottom=0;right=0;pointerEvents=1;fontSize=14;" vertex="1" parent="LWKcgiRB05Fe1JAIv9ON-23">
          <mxGeometry x="1280" width="240" height="80" as="geometry">
            <mxRectangle width="240" height="80" as="alternateBounds" />
          </mxGeometry>
        </mxCell>
        <mxCell id="LWKcgiRB05Fe1JAIv9ON-54" value="АБС - управление депозитными договорами" style="shape=partialRectangle;html=1;whiteSpace=wrap;connectable=0;strokeColor=inherit;overflow=hidden;fillColor=none;top=0;left=0;bottom=0;right=0;pointerEvents=1;fontSize=14;" vertex="1" parent="LWKcgiRB05Fe1JAIv9ON-23">
          <mxGeometry x="1520" width="240" height="80" as="geometry">
            <mxRectangle width="240" height="80" as="alternateBounds" />
          </mxGeometry>
        </mxCell>
        <mxCell id="LWKcgiRB05Fe1JAIv9ON-36" style="shape=tableRow;horizontal=0;startSize=0;swimlaneHead=0;swimlaneBody=0;strokeColor=inherit;top=0;left=0;bottom=0;right=0;collapsible=0;dropTarget=0;fillColor=none;points=[[0,0.5],[1,0.5]];portConstraint=eastwest;fontSize=16;" vertex="1" parent="LWKcgiRB05Fe1JAIv9ON-14">
          <mxGeometry y="240" width="1760" height="80" as="geometry" />
        </mxCell>
        <mxCell id="LWKcgiRB05Fe1JAIv9ON-37" value="&lt;strong style=&quot;box-sizing: inherit; color: rgba(0, 0, 0, 0.85); font-family: &amp;quot;YS Text&amp;quot;, sans-serif; text-align: left; white-space-collapse: preserve-breaks; background-color: rgb(255, 255, 255);&quot;&gt;&lt;font style=&quot;font-size: 14px;&quot;&gt;Управление обслуживанием кредитных продуктов (Бэк-офис кредитов)&lt;/font&gt;&lt;/strong&gt;" style="shape=partialRectangle;html=1;whiteSpace=wrap;connectable=0;strokeColor=#82b366;overflow=hidden;fillColor=#d5e8d4;top=0;left=0;bottom=0;right=0;pointerEvents=1;fontSize=16;" vertex="1" parent="LWKcgiRB05Fe1JAIv9ON-36">
          <mxGeometry width="320" height="80" as="geometry">
            <mxRectangle width="320" height="80" as="alternateBounds" />
          </mxGeometry>
        </mxCell>
        <mxCell id="LWKcgiRB05Fe1JAIv9ON-38" value="-" style="shape=partialRectangle;html=1;whiteSpace=wrap;connectable=0;strokeColor=inherit;overflow=hidden;fillColor=none;top=0;left=0;bottom=0;right=0;pointerEvents=1;fontSize=14;" vertex="1" parent="LWKcgiRB05Fe1JAIv9ON-36">
          <mxGeometry x="320" width="240" height="80" as="geometry">
            <mxRectangle width="240" height="80" as="alternateBounds" />
          </mxGeometry>
        </mxCell>
        <mxCell id="LWKcgiRB05Fe1JAIv9ON-87" value="-" style="shape=partialRectangle;html=1;whiteSpace=wrap;connectable=0;strokeColor=inherit;overflow=hidden;fillColor=none;top=0;left=0;bottom=0;right=0;pointerEvents=1;fontSize=14;" vertex="1" parent="LWKcgiRB05Fe1JAIv9ON-36">
          <mxGeometry x="560" width="240" height="80" as="geometry">
            <mxRectangle width="240" height="80" as="alternateBounds" />
          </mxGeometry>
        </mxCell>
        <mxCell id="LWKcgiRB05Fe1JAIv9ON-79" value="-" style="shape=partialRectangle;html=1;whiteSpace=wrap;connectable=0;strokeColor=inherit;overflow=hidden;fillColor=none;top=0;left=0;bottom=0;right=0;pointerEvents=1;fontSize=14;" vertex="1" parent="LWKcgiRB05Fe1JAIv9ON-36">
          <mxGeometry x="800" width="240" height="80" as="geometry">
            <mxRectangle width="240" height="80" as="alternateBounds" />
          </mxGeometry>
        </mxCell>
        <mxCell id="LWKcgiRB05Fe1JAIv9ON-71" value="Excel анализ для VIP-ставок" style="shape=partialRectangle;html=1;whiteSpace=wrap;connectable=0;strokeColor=inherit;overflow=hidden;fillColor=none;top=0;left=0;bottom=0;right=0;pointerEvents=1;fontSize=14;" vertex="1" parent="LWKcgiRB05Fe1JAIv9ON-36">
          <mxGeometry x="1040" width="240" height="80" as="geometry">
            <mxRectangle width="240" height="80" as="alternateBounds" />
          </mxGeometry>
        </mxCell>
        <mxCell id="LWKcgiRB05Fe1JAIv9ON-63" value="Кредитный конвейер (Camunda/Oracle), Система скоринга" style="shape=partialRectangle;html=1;whiteSpace=wrap;connectable=0;strokeColor=inherit;overflow=hidden;fillColor=none;top=0;left=0;bottom=0;right=0;pointerEvents=1;fontSize=14;" vertex="1" parent="LWKcgiRB05Fe1JAIv9ON-36">
          <mxGeometry x="1280" width="240" height="80" as="geometry">
            <mxRectangle width="240" height="80" as="alternateBounds" />
          </mxGeometry>
        </mxCell>
        <mxCell id="LWKcgiRB05Fe1JAIv9ON-55" value="АБС - кредитные договоры" style="shape=partialRectangle;html=1;whiteSpace=wrap;connectable=0;strokeColor=inherit;overflow=hidden;fillColor=none;top=0;left=0;bottom=0;right=0;pointerEvents=1;fontSize=14;" vertex="1" parent="LWKcgiRB05Fe1JAIv9ON-36">
          <mxGeometry x="1520" width="240" height="80" as="geometry">
            <mxRectangle width="240" height="80" as="alternateBounds" />
          </mxGeometry>
        </mxCell>
        <mxCell id="LWKcgiRB05Fe1JAIv9ON-32" style="shape=tableRow;horizontal=0;startSize=0;swimlaneHead=0;swimlaneBody=0;strokeColor=inherit;top=0;left=0;bottom=0;right=0;collapsible=0;dropTarget=0;fillColor=none;points=[[0,0.5],[1,0.5]];portConstraint=eastwest;fontSize=16;" vertex="1" parent="LWKcgiRB05Fe1JAIv9ON-14">
          <mxGeometry y="320" width="1760" height="80" as="geometry" />
        </mxCell>
        <mxCell id="LWKcgiRB05Fe1JAIv9ON-33" value="&lt;strong style=&quot;white-space-collapse: preserve-breaks; box-sizing: inherit; color: rgba(0, 0, 0, 0.85); font-family: &amp;quot;YS Text&amp;quot;, sans-serif; text-align: left; background-color: rgb(255, 255, 255);&quot;&gt;&lt;font style=&quot;font-size: 14px;&quot;&gt;Кол-центр банка&amp;nbsp;&lt;/font&gt;&lt;/strong&gt;" style="shape=partialRectangle;html=1;whiteSpace=wrap;connectable=0;strokeColor=#666666;overflow=hidden;fillColor=#f5f5f5;top=0;left=0;bottom=0;right=0;pointerEvents=1;fontSize=16;fontColor=#333333;" vertex="1" parent="LWKcgiRB05Fe1JAIv9ON-32">
          <mxGeometry width="320" height="80" as="geometry">
            <mxRectangle width="320" height="80" as="alternateBounds" />
          </mxGeometry>
        </mxCell>
        <mxCell id="LWKcgiRB05Fe1JAIv9ON-34" value="-" style="shape=partialRectangle;html=1;whiteSpace=wrap;connectable=0;strokeColor=inherit;overflow=hidden;fillColor=none;top=0;left=0;bottom=0;right=0;pointerEvents=1;fontSize=14;" vertex="1" parent="LWKcgiRB05Fe1JAIv9ON-32">
          <mxGeometry x="320" width="240" height="80" as="geometry">
            <mxRectangle width="240" height="80" as="alternateBounds" />
          </mxGeometry>
        </mxCell>
        <mxCell id="LWKcgiRB05Fe1JAIv9ON-88" value="CRM система (React/Java/PostgreSQL), интеграция с АБС" style="shape=partialRectangle;html=1;whiteSpace=wrap;connectable=0;strokeColor=inherit;overflow=hidden;fillColor=none;top=0;left=0;bottom=0;right=0;pointerEvents=1;fontSize=14;" vertex="1" parent="LWKcgiRB05Fe1JAIv9ON-32">
          <mxGeometry x="560" width="240" height="80" as="geometry">
            <mxRectangle width="240" height="80" as="alternateBounds" />
          </mxGeometry>
        </mxCell>
        <mxCell id="LWKcgiRB05Fe1JAIv9ON-80" value="CRM система" style="shape=partialRectangle;html=1;whiteSpace=wrap;connectable=0;strokeColor=inherit;overflow=hidden;fillColor=none;top=0;left=0;bottom=0;right=0;pointerEvents=1;fontSize=14;" vertex="1" parent="LWKcgiRB05Fe1JAIv9ON-32">
          <mxGeometry x="800" width="240" height="80" as="geometry">
            <mxRectangle width="240" height="80" as="alternateBounds" />
          </mxGeometry>
        </mxCell>
        <mxCell id="LWKcgiRB05Fe1JAIv9ON-72" value="CRM → АБС для заявок на депозиты" style="shape=partialRectangle;html=1;whiteSpace=wrap;connectable=0;strokeColor=inherit;overflow=hidden;fillColor=none;top=0;left=0;bottom=0;right=0;pointerEvents=1;fontSize=14;" vertex="1" parent="LWKcgiRB05Fe1JAIv9ON-32">
          <mxGeometry x="1040" width="240" height="80" as="geometry">
            <mxRectangle width="240" height="80" as="alternateBounds" />
          </mxGeometry>
        </mxCell>
        <mxCell id="LWKcgiRB05Fe1JAIv9ON-64" value="-" style="shape=partialRectangle;html=1;whiteSpace=wrap;connectable=0;strokeColor=inherit;overflow=hidden;fillColor=none;top=0;left=0;bottom=0;right=0;pointerEvents=1;fontSize=14;" vertex="1" parent="LWKcgiRB05Fe1JAIv9ON-32">
          <mxGeometry x="1280" width="240" height="80" as="geometry">
            <mxRectangle width="240" height="80" as="alternateBounds" />
          </mxGeometry>
        </mxCell>
        <mxCell id="LWKcgiRB05Fe1JAIv9ON-56" value="CRM система - консультации" style="shape=partialRectangle;html=1;whiteSpace=wrap;connectable=0;strokeColor=inherit;overflow=hidden;fillColor=none;top=0;left=0;bottom=0;right=0;pointerEvents=1;fontSize=14;" vertex="1" parent="LWKcgiRB05Fe1JAIv9ON-32">
          <mxGeometry x="1520" width="240" height="80" as="geometry">
            <mxRectangle width="240" height="80" as="alternateBounds" />
          </mxGeometry>
        </mxCell>
        <mxCell id="LWKcgiRB05Fe1JAIv9ON-28" style="shape=tableRow;horizontal=0;startSize=0;swimlaneHead=0;swimlaneBody=0;strokeColor=inherit;top=0;left=0;bottom=0;right=0;collapsible=0;dropTarget=0;fillColor=none;points=[[0,0.5],[1,0.5]];portConstraint=eastwest;fontSize=16;" vertex="1" parent="LWKcgiRB05Fe1JAIv9ON-14">
          <mxGeometry y="400" width="1760" height="80" as="geometry" />
        </mxCell>
        <mxCell id="LWKcgiRB05Fe1JAIv9ON-29" value="&lt;strong style=&quot;white-space-collapse: preserve-breaks; box-sizing: inherit; color: rgba(0, 0, 0, 0.85); font-family: &amp;quot;YS Text&amp;quot;, sans-serif; text-align: left; background-color: rgb(255, 255, 255);&quot;&gt;&lt;font style=&quot;font-size: 14px;&quot;&gt;Партнёрский кол-центр&lt;/font&gt;&lt;/strong&gt;" style="shape=partialRectangle;html=1;whiteSpace=wrap;connectable=0;strokeColor=#666666;overflow=hidden;fillColor=#f5f5f5;top=0;left=0;bottom=0;right=0;pointerEvents=1;fontSize=16;fontColor=#333333;" vertex="1" parent="LWKcgiRB05Fe1JAIv9ON-28">
          <mxGeometry width="320" height="80" as="geometry">
            <mxRectangle width="320" height="80" as="alternateBounds" />
          </mxGeometry>
        </mxCell>
        <mxCell id="LWKcgiRB05Fe1JAIv9ON-30" value="-" style="shape=partialRectangle;html=1;whiteSpace=wrap;connectable=0;strokeColor=inherit;overflow=hidden;fillColor=none;top=0;left=0;bottom=0;right=0;pointerEvents=1;fontSize=14;" vertex="1" parent="LWKcgiRB05Fe1JAIv9ON-28">
          <mxGeometry x="320" width="240" height="80" as="geometry">
            <mxRectangle width="240" height="80" as="alternateBounds" />
          </mxGeometry>
        </mxCell>
        <mxCell id="LWKcgiRB05Fe1JAIv9ON-89" value="Внешняя система, готовые скрипты" style="shape=partialRectangle;html=1;whiteSpace=wrap;connectable=0;strokeColor=inherit;overflow=hidden;fillColor=none;top=0;left=0;bottom=0;right=0;pointerEvents=1;fontSize=14;" vertex="1" parent="LWKcgiRB05Fe1JAIv9ON-28">
          <mxGeometry x="560" width="240" height="80" as="geometry">
            <mxRectangle width="240" height="80" as="alternateBounds" />
          </mxGeometry>
        </mxCell>
        <mxCell id="LWKcgiRB05Fe1JAIv9ON-81" value="-" style="shape=partialRectangle;html=1;whiteSpace=wrap;connectable=0;strokeColor=inherit;overflow=hidden;fillColor=none;top=0;left=0;bottom=0;right=0;pointerEvents=1;fontSize=14;" vertex="1" parent="LWKcgiRB05Fe1JAIv9ON-28">
          <mxGeometry x="800" width="240" height="80" as="geometry">
            <mxRectangle width="240" height="80" as="alternateBounds" />
          </mxGeometry>
        </mxCell>
        <mxCell id="LWKcgiRB05Fe1JAIv9ON-73" value="-" style="shape=partialRectangle;html=1;whiteSpace=wrap;connectable=0;strokeColor=inherit;overflow=hidden;fillColor=none;top=0;left=0;bottom=0;right=0;pointerEvents=1;fontSize=14;" vertex="1" parent="LWKcgiRB05Fe1JAIv9ON-28">
          <mxGeometry x="1040" width="240" height="80" as="geometry">
            <mxRectangle width="240" height="80" as="alternateBounds" />
          </mxGeometry>
        </mxCell>
        <mxCell id="LWKcgiRB05Fe1JAIv9ON-65" value="-" style="shape=partialRectangle;html=1;whiteSpace=wrap;connectable=0;strokeColor=inherit;overflow=hidden;fillColor=none;top=0;left=0;bottom=0;right=0;pointerEvents=1;fontSize=14;" vertex="1" parent="LWKcgiRB05Fe1JAIv9ON-28">
          <mxGeometry x="1280" width="240" height="80" as="geometry">
            <mxRectangle width="240" height="80" as="alternateBounds" />
          </mxGeometry>
        </mxCell>
        <mxCell id="LWKcgiRB05Fe1JAIv9ON-57" value="-" style="shape=partialRectangle;html=1;whiteSpace=wrap;connectable=0;strokeColor=inherit;overflow=hidden;fillColor=none;top=0;left=0;bottom=0;right=0;pointerEvents=1;fontSize=14;" vertex="1" parent="LWKcgiRB05Fe1JAIv9ON-28">
          <mxGeometry x="1520" width="240" height="80" as="geometry">
            <mxRectangle width="240" height="80" as="alternateBounds" />
          </mxGeometry>
        </mxCell>
        <mxCell id="LWKcgiRB05Fe1JAIv9ON-48" style="shape=tableRow;horizontal=0;startSize=0;swimlaneHead=0;swimlaneBody=0;strokeColor=inherit;top=0;left=0;bottom=0;right=0;collapsible=0;dropTarget=0;fillColor=none;points=[[0,0.5],[1,0.5]];portConstraint=eastwest;fontSize=16;" vertex="1" parent="LWKcgiRB05Fe1JAIv9ON-14">
          <mxGeometry y="480" width="1760" height="80" as="geometry" />
        </mxCell>
        <mxCell id="LWKcgiRB05Fe1JAIv9ON-49" value="&lt;strong style=&quot;box-sizing: inherit; color: rgba(0, 0, 0, 0.85); font-family: &amp;quot;YS Text&amp;quot;, sans-serif; text-align: left; white-space-collapse: preserve-breaks; background-color: rgb(255, 255, 255);&quot;&gt;&lt;font style=&quot;font-size: 14px;&quot;&gt;Управление IT&lt;/font&gt;&lt;/strong&gt;" style="shape=partialRectangle;html=1;whiteSpace=wrap;connectable=0;strokeColor=#666666;overflow=hidden;fillColor=#f5f5f5;top=0;left=0;bottom=0;right=0;pointerEvents=1;fontSize=16;fontColor=#333333;" vertex="1" parent="LWKcgiRB05Fe1JAIv9ON-48">
          <mxGeometry width="320" height="80" as="geometry">
            <mxRectangle width="320" height="80" as="alternateBounds" />
          </mxGeometry>
        </mxCell>
        <mxCell id="LWKcgiRB05Fe1JAIv9ON-50" value="Поддержка АБС (20 чел)" style="shape=partialRectangle;html=1;whiteSpace=wrap;connectable=0;strokeColor=inherit;overflow=hidden;fillColor=none;top=0;left=0;bottom=0;right=0;pointerEvents=1;fontSize=14;" vertex="1" parent="LWKcgiRB05Fe1JAIv9ON-48">
          <mxGeometry x="320" width="240" height="80" as="geometry">
            <mxRectangle width="240" height="80" as="alternateBounds" />
          </mxGeometry>
        </mxCell>
        <mxCell id="LWKcgiRB05Fe1JAIv9ON-90" value="Поддержка CRM системы (5 чел подрядчика)" style="shape=partialRectangle;html=1;whiteSpace=wrap;connectable=0;strokeColor=inherit;overflow=hidden;fillColor=none;top=0;left=0;bottom=0;right=0;pointerEvents=1;fontSize=14;" vertex="1" parent="LWKcgiRB05Fe1JAIv9ON-48">
          <mxGeometry x="560" width="240" height="80" as="geometry">
            <mxRectangle width="240" height="80" as="alternateBounds" />
          </mxGeometry>
        </mxCell>
        <mxCell id="LWKcgiRB05Fe1JAIv9ON-82" value="СМС-шлюз поддержка" style="shape=partialRectangle;html=1;whiteSpace=wrap;connectable=0;strokeColor=inherit;overflow=hidden;fillColor=none;top=0;left=0;bottom=0;right=0;pointerEvents=1;fontSize=14;" vertex="1" parent="LWKcgiRB05Fe1JAIv9ON-48">
          <mxGeometry x="800" width="240" height="80" as="geometry">
            <mxRectangle width="240" height="80" as="alternateBounds" />
          </mxGeometry>
        </mxCell>
        <mxCell id="LWKcgiRB05Fe1JAIv9ON-74" value="Интернет-банк разработка (20 чел)" style="shape=partialRectangle;html=1;whiteSpace=wrap;connectable=0;strokeColor=inherit;overflow=hidden;fillColor=none;top=0;left=0;bottom=0;right=0;pointerEvents=1;fontSize=14;" vertex="1" parent="LWKcgiRB05Fe1JAIv9ON-48">
          <mxGeometry x="1040" width="240" height="80" as="geometry">
            <mxRectangle width="240" height="80" as="alternateBounds" />
          </mxGeometry>
        </mxCell>
        <mxCell id="LWKcgiRB05Fe1JAIv9ON-66" value="Система скоринга (внутренняя разработка)" style="shape=partialRectangle;html=1;whiteSpace=wrap;connectable=0;strokeColor=inherit;overflow=hidden;fillColor=none;top=0;left=0;bottom=0;right=0;pointerEvents=1;fontSize=14;" vertex="1" parent="LWKcgiRB05Fe1JAIv9ON-48">
          <mxGeometry x="1280" width="240" height="80" as="geometry">
            <mxRectangle width="240" height="80" as="alternateBounds" />
          </mxGeometry>
        </mxCell>
        <mxCell id="LWKcgiRB05Fe1JAIv9ON-58" value="Интернет-банк, АБС" style="shape=partialRectangle;html=1;whiteSpace=wrap;connectable=0;strokeColor=inherit;overflow=hidden;fillColor=none;top=0;left=0;bottom=0;right=0;pointerEvents=1;fontSize=14;" vertex="1" parent="LWKcgiRB05Fe1JAIv9ON-48">
          <mxGeometry x="1520" width="240" height="80" as="geometry">
            <mxRectangle width="240" height="80" as="alternateBounds" />
          </mxGeometry>
        </mxCell>
        <mxCell id="LWKcgiRB05Fe1JAIv9ON-44" style="shape=tableRow;horizontal=0;startSize=0;swimlaneHead=0;swimlaneBody=0;strokeColor=inherit;top=0;left=0;bottom=0;right=0;collapsible=0;dropTarget=0;fillColor=none;points=[[0,0.5],[1,0.5]];portConstraint=eastwest;fontSize=16;" vertex="1" parent="LWKcgiRB05Fe1JAIv9ON-14">
          <mxGeometry y="560" width="1760" height="80" as="geometry" />
        </mxCell>
        <mxCell id="LWKcgiRB05Fe1JAIv9ON-45" value="&lt;strong style=&quot;white-space-collapse: preserve-breaks; box-sizing: inherit; color: rgba(0, 0, 0, 0.85); font-family: &amp;quot;YS Text&amp;quot;, sans-serif; text-align: left; background-color: rgb(255, 255, 255);&quot;&gt;&lt;font style=&quot;font-size: 14px;&quot;&gt;Команда цифровой трансформации&lt;/font&gt;&lt;/strong&gt;" style="shape=partialRectangle;html=1;whiteSpace=wrap;connectable=0;strokeColor=#666666;overflow=hidden;fillColor=#f5f5f5;top=0;left=0;bottom=0;right=0;pointerEvents=1;fontSize=16;fontColor=#333333;" vertex="1" parent="LWKcgiRB05Fe1JAIv9ON-44">
          <mxGeometry width="320" height="80" as="geometry">
            <mxRectangle width="320" height="80" as="alternateBounds" />
          </mxGeometry>
        </mxCell>
        <mxCell id="LWKcgiRB05Fe1JAIv9ON-46" value="-" style="shape=partialRectangle;html=1;whiteSpace=wrap;connectable=0;strokeColor=inherit;overflow=hidden;fillColor=none;top=0;left=0;bottom=0;right=0;pointerEvents=1;fontSize=14;" vertex="1" parent="LWKcgiRB05Fe1JAIv9ON-44">
          <mxGeometry x="320" width="240" height="80" as="geometry">
            <mxRectangle width="240" height="80" as="alternateBounds" />
          </mxGeometry>
        </mxCell>
        <mxCell id="LWKcgiRB05Fe1JAIv9ON-91" value="-" style="shape=partialRectangle;html=1;whiteSpace=wrap;connectable=0;strokeColor=inherit;overflow=hidden;fillColor=none;top=0;left=0;bottom=0;right=0;pointerEvents=1;fontSize=14;" vertex="1" parent="LWKcgiRB05Fe1JAIv9ON-44">
          <mxGeometry x="560" width="240" height="80" as="geometry">
            <mxRectangle width="240" height="80" as="alternateBounds" />
          </mxGeometry>
        </mxCell>
        <mxCell id="LWKcgiRB05Fe1JAIv9ON-83" value="Сайт (PHP/React)" style="shape=partialRectangle;html=1;whiteSpace=wrap;connectable=0;strokeColor=inherit;overflow=hidden;fillColor=none;top=0;left=0;bottom=0;right=0;pointerEvents=1;fontSize=14;" vertex="1" parent="LWKcgiRB05Fe1JAIv9ON-44">
          <mxGeometry x="800" width="240" height="80" as="geometry">
            <mxRectangle width="240" height="80" as="alternateBounds" />
          </mxGeometry>
        </mxCell>
        <mxCell id="LWKcgiRB05Fe1JAIv9ON-75" value="Интернет-банк стратегия" style="shape=partialRectangle;html=1;whiteSpace=wrap;connectable=0;strokeColor=inherit;overflow=hidden;fillColor=none;top=0;left=0;bottom=0;right=0;pointerEvents=1;fontSize=14;" vertex="1" parent="LWKcgiRB05Fe1JAIv9ON-44">
          <mxGeometry x="1040" width="240" height="80" as="geometry">
            <mxRectangle width="240" height="80" as="alternateBounds" />
          </mxGeometry>
        </mxCell>
        <mxCell id="LWKcgiRB05Fe1JAIv9ON-67" value="Интернет-банк стратегия" style="shape=partialRectangle;html=1;whiteSpace=wrap;connectable=0;strokeColor=inherit;overflow=hidden;fillColor=none;top=0;left=0;bottom=0;right=0;pointerEvents=1;fontSize=14;" vertex="1" parent="LWKcgiRB05Fe1JAIv9ON-44">
          <mxGeometry x="1280" width="240" height="80" as="geometry">
            <mxRectangle width="240" height="80" as="alternateBounds" />
          </mxGeometry>
        </mxCell>
        <mxCell id="LWKcgiRB05Fe1JAIv9ON-59" value="Интернет-банк развитие" style="shape=partialRectangle;html=1;whiteSpace=wrap;connectable=0;strokeColor=inherit;overflow=hidden;fillColor=none;top=0;left=0;bottom=0;right=0;pointerEvents=1;fontSize=14;" vertex="1" parent="LWKcgiRB05Fe1JAIv9ON-44">
          <mxGeometry x="1520" width="240" height="80" as="geometry">
            <mxRectangle width="240" height="80" as="alternateBounds" />
          </mxGeometry>
        </mxCell>
      </root>
    </mxGraphModel>
  </diagram>
</mxfile>
